:SAMPLES-PER-SECOND 30
:FULLY-SPECIFIED
:DEGREES
32
root  73.9425 39.4392 -3.04934 -125.405 -87.0469 122.777
RightUpLeg  4.70871 -9.275 -5.4348
RightLeg  15.745 4.2522 2.29125
RightFoot  -17.0381 -0.144748 -0.591808
RightToes  8.73114e-010 0 -3.6325e-017
Spine  2.72555 -0.426512 10.9548
Spine1  16.5536 2.00713 -5.97521
HEad  -10.0753 0.362607 -4.0989
LeftShoulder1  9.83436 -13.5328 -50.3916
LeftArm  -11.1779 14.6746 -26.5154
LeftForeArm  21.252 -12.2931 -4.84245
LeftHand  -0.244104 0.0205437 5.32207
RightShoulder  7.4121 11.4929 43.0758
RightArm  -1.13943 -8.64623 28.0375
RightForeArm  3.77722 3.97626 8.93239
RightHand  -0.27882 -2.7066 -11.5766
LeftUpLeg  -21.9574 3.83892 -1.76389
LeftLeg  42.4114 6.07003 6.28781
LeftFoot  -5.43359 0.337602 -5.90657
LeftToes  -7.64008e-011 1.13257e-010 -2.15718e-012
33
root  73.3806 39.4577 -3.1102 -120.05 -86.4901 118.001
RightUpLeg  5.57766 -9.31699 -6.19495
RightLeg  14.6561 4.41867 2.37353
RightFoot  -17.3967 -0.143272 -0.486724
RightToes  8.73114e-010 0 -3.6325e-017
Spine  3.15979 -0.21978 10.3688
Spine1  15.74 2.27529 -6.50006
HEad  -10.4286 0.524914 -3.54432
LeftShoulder1  9.6045 -13.3441 -49.77
LeftArm  -10.6082 14.3395 -26.0914
LeftForeArm  20.3708 -14.0078 -4.68756
LeftHand  -0.244104 0.0205437 5.32207
RightShoulder  7.27358 11.327 42.7235
RightArm  -2.30543 -7.06008 27.8703
RightForeArm  -1.54615 5.35969 8.99661
RightHand  -0.47925 -1.62353 -14.6643
LeftUpLeg  -23.7406 3.98036 -3.2241
LeftLeg  37.7572 6.46026 5.71678
LeftFoot  -5.48836 0.306124 -5.34302
LeftToes  -7.64008e-011 1.13257e-010 -2.15718e-012
34
root  72.7749 39.4121 -3.15694 -115.091 -86.2696 113.624
RightUpLeg  6.44507 -9.36784 -6.68381
RightLeg  13.8213 4.40845 2.4787
RightFoot  -18.127 -0.126483 -0.0686616
RightToes  8.73114e-010 0 -3.6325e-017
Spine  3.6162 -0.138312 9.77838
Spine1  14.9357 2.29584 -6.65992
HEad  -11.3804 0.390844 -3.84818
LeftShoulder1  9.47863 -13.1982 -49.547
LeftArm  -9.57641 13.8463 -25.5423
LeftForeArm  18.9321 -15.6926 -4.58097
LeftHand  -0.244104 0.0205437 5.32207
RightShoulder  7.26325 11.2947 42.7576
RightArm  -3.35962 -5.27108 27.5049
RightForeArm  -6.91845 7.38629 9.11828
RightHand  -0.663813 -0.620788 -16.1671
LeftUpLeg  -25.2338 3.83601 -4.1712
LeftLeg  32.1635 5.65217 4.18129
LeftFoot  -5.30213 0.319712 -5.44565
LeftToes  -7.64008e-011 1.13257e-010 -2.15718e-012
35
root  72.1032 39.3259 -3.17702 -114.256 -86.2173 113.313
RightUpLeg  7.43513 -9.36567 -6.96056
RightLeg  13.0382 4.52089 2.62562
RightFoot  -18.861 -0.104248 0.358523
RightToes  8.73114e-010 0 -3.6325e-017
Spine  3.84026 -0.0371484 9.4416
Spine1  14.6744 2.35912 -6.8117
HEad  -12.7218 0.529731 -4.13995
LeftShoulder1  9.46198 -13.1525 -49.5949
LeftArm  -8.98081 13.0875 -25.0789
LeftForeArm  17.9732 -17.0509 -4.42566
LeftHand  -0.244104 0.0205437 5.32207
RightShoulder  7.26434 11.2691 42.8434
RightArm  -3.86373 -2.94353 27.3499
RightForeArm  -9.65708 9.50874 8.94437
RightHand  -0.735384 -0.00475739 -15.8697
LeftUpLeg  -26.2354 3.90083 -4.72927
LeftLeg  25.9776 4.09309 2.50547
LeftFoot  -4.09223 0.355892 -5.24745
LeftToes  -7.64008e-011 1.13257e-010 -2.15718e-012
36
root  71.3353 39.2196 -3.1755 -119.349 -86.1164 118.818
RightUpLeg  8.70861 -9.25477 -7.16598
RightLeg  12.1452 4.86389 2.73216
RightFoot  -19.4535 -0.104354 0.388037
RightToes  8.73114e-010 0 -3.6325e-017
Spine  3.98832 0.204589 9.16781
Spine1  14.5834 2.60596 -6.97388
HEad  -14.0009 1.05388 -4.20419
LeftShoulder1  9.51163 -13.2215 -49.6498
LeftArm  -8.97655 12.4879 -24.945
LeftForeArm  18.0161 -18.2042 -4.22001
LeftHand  -0.244104 0.0205437 5.32207
RightShoulder  7.19517 11.1554 42.7595
RightArm  -3.19517 -0.299792 27.6921
RightForeArm  -10.2913 11.3457 8.65969
RightHand  -0.732783 0.326902 -14.9271
LeftUpLeg  -26.7221 4.85723 -5.26233
LeftLeg  19.85 2.86699 1.47695
LeftFoot  -1.88692 0.346501 -4.07734
LeftToes  -7.64008e-011 1.13257e-010 -2.15718e-012
37
root  70.4509 39.0655 -3.1583 -124.88 -86.0276 124.589
RightUpLeg  10.4085 -9.18616 -7.45469
RightLeg  11.2315 5.26821 2.83596
RightFoot  -20.2418 -0.111971 0.31889
RightToes  8.73114e-010 0 -3.6325e-017
Spine  4.34276 0.464151 8.66635
Spine1  13.9747 2.79792 -6.88318
HEad  -14.4894 1.73988 -4.07551
LeftShoulder1  9.66272 -13.4452 -49.7726
LeftArm  -8.69707 12.5714 -24.9026
LeftForeArm  18.0489 -19.4396 -4.06183
LeftHand  -0.244104 0.0205437 5.32207
RightShoulder  7.14782 11.127 42.5482
RightArm  -1.46215 1.67954 28.4186
RightForeArm  -11.3025 13.4272 8.24005
RightHand  -0.715094 0.472702 -14.2184
LeftUpLeg  -27.0509 6.27671 -5.80126
LeftLeg  15.3073 2.83093 1.01617
LeftFoot  0.0367076 0.250719 -2.50672
LeftToes  -7.64008e-011 1.13257e-010 -2.15718e-012
38
root  69.443 38.8349 -3.11005 -127.766 -86.1614 127.587
RightUpLeg  12.3724 -9.31769 -7.86218
RightLeg  10.6372 5.71067 3.04483
RightFoot  -21.2534 -0.0882939 0.638536
RightToes  8.73114e-010 0 -3.6325e-017
Spine  4.56469 0.573087 8.20475
Spine1  13.2543 2.82501 -6.77298
HEad  -14.1275 2.08536 -4.00628
LeftShoulder1  9.89699 -13.7666 -50.0308
LeftArm  -7.78823 13.1607 -24.6584
LeftForeArm  17.6242 -20.7404 -3.99714
LeftHand  -0.244104 0.0205437 5.32207
RightShoulder  7.25475 11.3897 42.4137
RightArm  0.675458 2.55043 29.2368
RightForeArm  -13.3416 16.3325 7.37136
RightHand  -0.634106 0.0194947 -13.6397
LeftUpLeg  -27.4785 6.48915 -5.74537
LeftLeg  13.7228 4.60207 0.900226
LeftFoot  0.491364 0.135152 -1.32173
LeftToes  -7.64008e-011 1.13257e-010 -2.15718e-012
39
root  68.3042 38.5599 -3.01056 -134.032 -86.1417 133.995
RightUpLeg  14.0207 -9.62403 -8.42508
RightLeg  10.9268 6.66167 3.23488
RightFoot  -21.9755 -0.0433475 1.13403
RightToes  8.73114e-010 0 -3.6325e-017
Spine  4.08922 0.687258 8.14234
Spine1  13.2956 3.04414 -7.15895
HEad  -13.8281 2.18163 -3.92182
LeftShoulder1  10.0248 -13.9466 -50.1542
LeftArm  -6.99756 13.6604 -24.4108
LeftForeArm  18.0831 -21.7768 -3.954
LeftHand  -0.244104 0.0205437 5.32207
RightShoulder  7.48176 11.809 42.5504
RightArm  2.81656 2.95201 29.9117
RightForeArm  -15.3744 19.6828 6.30708
RightHand  -0.519622 -0.827008 -13.1875
LeftUpLeg  -27.8013 6.80414 -5.82136
LeftLeg  14.5837 5.91067 1.59332
LeftFoot  0.277654 0.0435902 -0.445129
LeftToes  -7.64008e-011 1.13257e-010 -2.15718e-012
40
root  67.0366 38.3177 -2.87284 -144.433 -85.2528 144.572
RightUpLeg  14.9937 -9.87625 -9.37543
RightLeg  12.4497 8.43461 3.11183
RightFoot  -22.1384 0.0293362 1.88475
RightToes  8.73114e-010 0 -3.6325e-017
Spine  3.19763 1.04855 7.81138
Spine1  13.8568 3.62793 -7.76951
HEad  -14.1351 2.60011 -3.6997
LeftShoulder1  9.92409 -13.819 -50.0161
LeftArm  -6.86874 13.9551 -24.3823
LeftForeArm  20.0775 -22.1781 -3.85887
LeftHand  -0.244104 0.0205437 5.32207
RightShoulder  7.66156 12.0343 42.9667
RightArm  4.79811 3.44888 30.3943
RightForeArm  -15.7397 22.5498 5.77156
RightHand  -0.510714 -0.832973 -12.9841
LeftUpLeg  -27.5451 7.31435 -5.962
LeftLeg  16.3968 7.07783 2.57695
LeftFoot  1.11649 -0.106063 0.8855
LeftToes  -7.64008e-011 1.13257e-010 -2.15718e-012
41
root  65.6824 38.1671 -2.73103 -148.099 -83.7877 148.143
RightUpLeg  15.4374 -8.84761 -10.5527
RightLeg  15.2716 9.47642 2.78754
RightFoot  -21.6721 0.233651 4.1934
RightToes  8.73114e-010 0 -3.6325e-017
Spine  2.86272 1.44306 6.08555
Spine1  13.9666 4.03038 -7.72898
HEad  -14.7877 3.42991 -3.47501
LeftShoulder1  9.77586 -13.5644 -50.0039
LeftArm  -6.84089 14.3018 -24.2514
LeftForeArm  21.8119 -21.5047 -3.78388
LeftHand  -0.244104 0.0205437 5.32207
RightShoulder  7.70479 11.9568 43.4535
RightArm  6.30432 3.64767 30.8902
RightForeArm  -13.1408 24.3309 5.82112
RightHand  -0.652287 0.541207 -12.8539
LeftUpLeg  -26.7239 8.18495 -6.58784
LeftLeg  18.6268 7.82033 3.26081
LeftFoot  2.57308 -0.337863 2.64784
LeftToes  -7.64008e-011 1.13257e-010 -2.15718e-012
42
root  64.3051 38.1338 -2.58827 -144.464 -82.8777 143.925
RightUpLeg  15.0368 -5.49116 -11.2603
RightLeg  20.2834 7.66514 2.82325
RightFoot  -19.3548 0.450668 8.50385
RightToes  8.73114e-010 0 -3.6325e-017
Spine  3.45903 1.47047 3.21332
Spine1  13.4185 3.72725 -6.87639
HEad  -15.3523 4.07553 -3.48552
LeftShoulder1  9.8291 -13.5246 -50.3886
LeftArm  -6.51019 14.5475 -23.6847
LeftForeArm  21.7794 -19.1753 -4.06054
LeftHand  -0.244104 0.0205437 5.32207
RightShoulder  7.67311 11.7989 43.7361
RightArm  7.31514 2.9077 31.6902
RightForeArm  -8.85634 24.9451 5.7862
RightHand  -0.842654 2.1916 -13.045
LeftUpLeg  -25.3871 9.0928 -7.74099
LeftLeg  21.1816 7.64377 3.58217
LeftFoot  2.24691 -0.477576 3.90662
LeftToes  -7.64008e-011 1.13257e-010 -2.15718e-012
43
root  62.9322 38.2409 -2.41986 -139.46 -82.642 138.072
RightUpLeg  12.5857 -2.73935 -11.6927
RightLeg  28.9366 5.21622 2.86904
RightFoot  -12.4241 0.0238942 12.3128
RightToes  8.73114e-010 0 -3.6325e-017
Spine  4.40053 1.17693 0.69842
Spine1  12.7736 3.03182 -5.95623
HEad  -15.5758 4.25892 -3.84047
LeftShoulder1  10.0223 -13.7292 -50.7668
LeftArm  -6.86223 14.2137 -23.044
LeftForeArm  21.5224 -15.1074 -4.95622
LeftHand  -0.244104 0.0205437 5.32207
RightShoulder  7.65069 11.7425 43.7716
RightArm  8.46423 1.37096 32.7343
RightForeArm  -6.1386 24.553 5.56028
RightHand  -0.981819 2.88443 -13.9526
LeftUpLeg  -23.1363 9.64452 -8.70041
LeftLeg  23.0302 7.05242 3.61115
LeftFoot  -0.565257 -0.390496 4.15746
LeftToes  -7.64008e-011 1.13257e-010 -2.15718e-012
44
root  61.5809 38.4491 -2.23406 -137.57 -82.2362 135.47
RightUpLeg  7.28517 -0.398606 -11.8189
RightLeg  40.2227 2.69634 2.15501
RightFoot  -0.192775 -1.18238 12.4813
RightToes  8.73114e-010 0 -3.6325e-017
Spine  5.02574 0.933788 -1.09521
Spine1  12.4133 2.49215 -5.38532
HEad  -15.3491 4.49635 -4.50398
LeftShoulder1  10.0986 -13.8891 -50.6842
LeftArm  -8.00421 13.2657 -22.9053
LeftForeArm  22.5367 -10.4967 -5.83478
LeftHand  -0.244104 0.0205437 5.32207
RightShoulder  7.63281 11.7032 43.7829
RightArm  11.0592 -0.269891 33.6262
RightForeArm  -6.80173 23.4697 5.389
RightHand  -0.993373 2.46984 -14.8256
LeftUpLeg  -20.0121 10.4618 -9.28123
LeftLeg  23.2166 6.44109 3.35672
LeftFoot  -3.87512 -0.220538 3.73093
LeftToes  -7.64008e-011 1.13257e-010 -2.15718e-012
